<svg width="215" height="82" viewBox="0 0 215 82" fill="none" xmlns="http://www.w3.org/2000/svg">
<path d="M44.2358 37.9699C52.6374 35.2957 58.2488 29.9576 58.2488 21.6019V18.6988C58.2488 6.16009 48.0149 0 28.4633 0H0V81.2882H29.6606C48.5251 81.2882 58.2905 74.5558 58.2905 62.0171V55.3992C58.2905 46.8042 54.3448 40.6545 44.2358 37.9803V37.9699ZM18.8645 13.9539H27.9532C34.637 13.9539 36.3027 16.5136 36.3027 22.3095V23.4125C36.3027 29.916 33.2732 32.0075 26.2354 32.0075H18.8645V13.9539ZM38.1871 59.3325C38.1871 65.3677 36.0112 67.2719 29.671 67.2719H18.8645V48.2194H27.2661C35.8342 48.2194 38.1871 50.5398 38.1871 58.0942V59.3429V59.3325Z" fill="#C5D544"/>
<path d="M88.4613 0H66.5151V81.2882H88.4613V0Z" fill="#C5D544"/>
<path d="M96.6963 13.9539H114.822V81.2882H136.861V13.9539H154.987V0H96.6963V13.9539Z" fill="#C5D544"/>
<path d="M214.651 13.9539V0H163.222V81.2882H214.651V67.2615H185.168V48.209H210.643V31.9971H185.168V13.9539H214.651Z" fill="#C5D544"/>
</svg>
