<svg width="24" height="25" viewBox="0 0 24 25" fill="none" xmlns="http://www.w3.org/2000/svg">
<mask id="mask0_159_628" style="mask-type:alpha" maskUnits="userSpaceOnUse" x="0" y="0" width="24" height="25">
<rect y="0.5" width="24" height="24" fill="#D9D9D9"/>
</mask>
<g mask="url(#mask0_159_628)">
<path d="M14.5 18.5C14.9167 18.5 15.2708 18.3542 15.5625 18.0625C15.8542 17.7708 16 17.4167 16 17C16 16.5833 15.8542 16.2292 15.5625 15.9375C15.2708 15.6458 14.9167 15.5 14.5 15.5C14.0833 15.5 13.7292 15.6458 13.4375 15.9375C13.1458 16.2292 13 16.5833 13 17C13 17.4167 13.1458 17.7708 13.4375 18.0625C13.7292 18.3542 14.0833 18.5 14.5 18.5ZM9.45 18.45L15.95 11.95L14.55 10.55L8.05 17.05L9.45 18.45ZM9.5 13.5C9.91667 13.5 10.2708 13.3542 10.5625 13.0625C10.8542 12.7708 11 12.4167 11 12C11 11.5833 10.8542 11.2292 10.5625 10.9375C10.2708 10.6458 9.91667 10.5 9.5 10.5C9.08333 10.5 8.72917 10.6458 8.4375 10.9375C8.14583 11.2292 8 11.5833 8 12C8 12.4167 8.14583 12.7708 8.4375 13.0625C8.72917 13.3542 9.08333 13.5 9.5 13.5ZM12 22.5C9.71667 22.5 7.8125 21.7167 6.2875 20.15C4.7625 18.5833 4 16.6333 4 14.3C4 12.6333 4.6625 10.8208 5.9875 8.8625C7.3125 6.90417 9.31667 4.78333 12 2.5C14.6833 4.78333 16.6875 6.90417 18.0125 8.8625C19.3375 10.8208 20 12.6333 20 14.3C20 16.6333 19.2375 18.5833 17.7125 20.15C16.1875 21.7167 14.2833 22.5 12 22.5ZM12 20.5C13.7333 20.5 15.1667 19.9125 16.3 18.7375C17.4333 17.5625 18 16.0833 18 14.3C18 13.0833 17.4958 11.7083 16.4875 10.175C15.4792 8.64167 13.9833 6.96667 12 5.15C10.0167 6.96667 8.52083 8.64167 7.5125 10.175C6.50417 11.7083 6 13.0833 6 14.3C6 16.0833 6.56667 17.5625 7.7 18.7375C8.83333 19.9125 10.2667 20.5 12 20.5Z" fill="#C5D544"/>
</g>
</svg>
