<svg width="24" height="25" viewBox="0 0 24 25" fill="none" xmlns="http://www.w3.org/2000/svg">
<mask id="mask0_159_623" style="mask-type:alpha" maskUnits="userSpaceOnUse" x="0" y="0" width="24" height="25">
<rect y="0.5" width="24" height="24" fill="#D9D9D9"/>
</mask>
<g mask="url(#mask0_159_623)">
<path d="M12 22.5C10.6167 22.5 9.4375 22.0125 8.4625 21.0375C7.4875 20.0625 7 18.8833 7 17.5C7 16.7 7.175 15.9542 7.525 15.2625C7.875 14.5708 8.36667 13.9833 9 13.5V5.5C9 4.66667 9.29167 3.95833 9.875 3.375C10.4583 2.79167 11.1667 2.5 12 2.5C12.8333 2.5 13.5417 2.79167 14.125 3.375C14.7083 3.95833 15 4.66667 15 5.5V13.5C15.6333 13.9833 16.125 14.5708 16.475 15.2625C16.825 15.9542 17 16.7 17 17.5C17 18.8833 16.5125 20.0625 15.5375 21.0375C14.5625 22.0125 13.3833 22.5 12 22.5ZM11 11.5H13V10.5H12V9.5H13V7.5H12V6.5H13V5.5C13 5.21667 12.9042 4.97917 12.7125 4.7875C12.5208 4.59583 12.2833 4.5 12 4.5C11.7167 4.5 11.4792 4.59583 11.2875 4.7875C11.0958 4.97917 11 5.21667 11 5.5V11.5Z" fill="#C5D544"/>
</g>
</svg>
