<svg width="20" height="23" viewBox="0 0 20 23" fill="none" xmlns="http://www.w3.org/2000/svg">
<path d="M7 18.5C7 20.1569 5.65685 21.5 4 21.5C2.34315 21.5 1 20.1569 1 18.5C1 16.8431 2.34315 15.5 4 15.5C5.65685 15.5 7 16.8431 7 18.5ZM7 18.5H15.5C16.4283 18.5 17.3185 18.1313 17.9749 17.4749C18.6313 16.8185 19 15.9283 19 15C19 14.0717 18.6313 13.1815 17.9749 12.5251C17.3185 11.8687 16.4283 11.5 15.5 11.5H4.5C3.57174 11.5 2.6815 11.1313 2.02513 10.4749C1.36875 9.8185 1 8.92826 1 8C1 7.07174 1.36875 6.1815 2.02513 5.52513C2.6815 4.86875 3.57174 4.5 4.5 4.5H13M13 4.5C13 6.15685 14.3431 7.5 16 7.5C17.6569 7.5 19 6.15685 19 4.5C19 2.84315 17.6569 1.5 16 1.5C14.3431 1.5 13 2.84315 13 4.5Z" stroke="#C5D544" stroke-width="2" stroke-linecap="round" stroke-linejoin="round"/>
</svg>
