<svg width="25" height="24" viewBox="0 0 25 24" fill="none" xmlns="http://www.w3.org/2000/svg">
<path d="M11.4136 13.0853C11.2225 12.8945 10.9947 12.7444 10.744 12.6441L2.814 9.46406C2.71932 9.42606 2.63853 9.36002 2.58246 9.27478C2.5264 9.18955 2.49775 9.0892 2.50036 8.98722C2.50297 8.88523 2.53672 8.78648 2.59708 8.70423C2.65743 8.62197 2.7415 8.56015 2.838 8.52706L21.838 2.02706C21.9266 1.99505 22.0225 1.98894 22.1145 2.00945C22.2064 2.02995 22.2906 2.07622 22.3572 2.14283C22.4238 2.20945 22.4701 2.29366 22.4906 2.38561C22.5111 2.47756 22.505 2.57345 22.473 2.66206L15.973 21.6621C15.9399 21.7586 15.8781 21.8426 15.7958 21.903C15.7136 21.9633 15.6148 21.9971 15.5128 21.9997C15.4109 22.0023 15.3105 21.9737 15.2253 21.9176C15.14 21.8615 15.074 21.7807 15.036 21.6861L11.856 13.7541C11.7552 13.5036 11.6047 13.2761 11.4136 13.0853ZM11.4136 13.0853L22.354 2.14706" stroke="black" stroke-width="2" stroke-linecap="round" stroke-linejoin="round"/>
</svg>
