<svg width="41" height="40" viewBox="0 0 41 40" fill="none" xmlns="http://www.w3.org/2000/svg">
<rect x="0.5" width="40" height="40" rx="8" fill="#C5D544"/>
<path d="M30.5 18C30.5 24.2413 23.5762 30.7412 21.2512 32.7487C21.0347 32.9116 20.771 32.9997 20.5 32.9997C20.229 32.9997 19.9653 32.9116 19.7488 32.7487C17.4238 30.7412 10.5 24.2413 10.5 18C10.5 15.3478 11.5536 12.8043 13.4289 10.9289C15.3043 9.05357 17.8478 8 20.5 8C23.1522 8 25.6957 9.05357 27.5711 10.9289C29.4464 12.8043 30.5 15.3478 30.5 18Z" stroke="black" stroke-width="2" stroke-linecap="round" stroke-linejoin="round"/>
<path d="M20.5 21.75C22.5711 21.75 24.25 20.0711 24.25 18C24.25 15.9289 22.5711 14.25 20.5 14.25C18.4289 14.25 16.75 15.9289 16.75 18C16.75 20.0711 18.4289 21.75 20.5 21.75Z" stroke="black" stroke-width="2" stroke-linecap="round" stroke-linejoin="round"/>
</svg>
