<svg width="24" height="25" viewBox="0 0 24 25" fill="none" xmlns="http://www.w3.org/2000/svg">
<path d="M2 21.5C2 18.5 3.85 16.14 7.08 15.5C9.5 15.02 12 13.5 13 12.5M11 20.5C9.24406 20.5053 7.55025 19.8505 6.25452 18.6654C4.95878 17.4803 4.15577 15.8515 4.00474 14.1021C3.8537 12.3527 4.36569 10.6104 5.43915 9.22074C6.51261 7.83112 8.06913 6.8957 9.8 6.6C15.5 5.5 17 4.98 19 2.5C20 4.5 21 6.68 21 10.5C21 16 16.22 20.5 11 20.5Z" stroke="black" stroke-width="2" stroke-linecap="round" stroke-linejoin="round"/>
</svg>
