<svg width="40" height="40" viewBox="0 0 40 40" fill="none" xmlns="http://www.w3.org/2000/svg">
<path d="M16 28.25C16 30.3211 14.3211 32 12.25 32C10.1789 32 8.5 30.3211 8.5 28.25C8.5 26.1789 10.1789 24.5 12.25 24.5C14.3211 24.5 16 26.1789 16 28.25ZM16 28.25H26.625C27.7853 28.25 28.8981 27.7891 29.7186 26.9686C30.5391 26.1481 31 25.0353 31 23.875C31 22.7147 30.5391 21.6019 29.7186 20.7814C28.8981 19.9609 27.7853 19.5 26.625 19.5H12.875C11.7147 19.5 10.6019 19.0391 9.78141 18.2186C8.96094 17.3981 8.5 16.2853 8.5 15.125C8.5 13.9647 8.96094 12.8519 9.78141 12.0314C10.6019 11.2109 11.7147 10.75 12.875 10.75H23.5M23.5 10.75C23.5 12.8211 25.1789 14.5 27.25 14.5C29.3211 14.5 31 12.8211 31 10.75C31 8.67893 29.3211 7 27.25 7C25.1789 7 23.5 8.67893 23.5 10.75Z" stroke="black" stroke-width="2" stroke-linecap="round" stroke-linejoin="round"/>
</svg>
